<svg height="512pt" viewBox="-15 0 512 512" width="512pt" xmlns="http://www.w3.org/2000/svg"><path d="m425.527344 220.730469h-246.066406v79.230469h-94.09375v-79.230469h-29.09375l-48.757813 195.679687h466.769531zm0 0" fill="#919191"/><path d="m425.527344 220.730469h-25.648438l25.039063 100.492187c7.726562 31.007813-15.730469 61.023438-47.6875 61.023438h-361.203125l-8.511719 34.164062h466.769531zm0 0" fill="#616161"/><path d="m418.074219 374.703125h-170.859375l17.253906-118.453125h130.671875zm0 0" fill="#bdbdbd"/><path d="m179.460938 176.171875v123.789063h-94.09375v-123.789063l12.539062 9.605469c1.855469 1.421875 4.429688 1.421875 6.285156 0l9.394532-7.195313c1.851562-1.421875 4.429687-1.421875 6.28125-.003906l9.398437 7.199219c1.855469 1.421875 4.429687 1.421875 6.285156 0l9.398438-7.199219c1.855469-1.417969 4.429687-1.417969 6.28125 0l9.402343 7.199219c1.855469 1.421875 4.429688 1.421875 6.28125 0zm0 0" fill="#eeedee"/><path d="m166.914062 185.777344c-1.851562 1.421875-4.425781 1.421875-6.28125 0l-8.484374-6.496094v120.679688h27.3125v-123.789063zm0 0" fill="#d6d5d6"/><path d="m86.273438 178.582031c.398437-.308593.835937-.550781 1.292968-.726562l-2.199218-1.683594v3.101563zm0 0" fill="#d6d5d6"/><path d="m190.472656 284.277344h-11.011718v15.683594h-94.09375v-15.683594h-11.011719c-5.390625 0-9.757813 4.371094-9.757813 9.761718v16.765626c0 5.390624 4.367188 9.757812 9.757813 9.757812h116.117187c5.386719 0 9.757813-4.367188 9.757813-9.757812v-16.765626c0-5.390624-4.371094-9.761718-9.757813-9.761718zm0 0" fill="#424242"/><path d="m56.273438 127.902344v92.828125h29.09375v-44.558594l12.539062 9.605469c1.855469 1.421875 4.429688 1.421875 6.285156 0l9.394532-7.195313c1.851562-1.421875 4.429687-1.421875 6.28125-.003906l9.398437 7.199219c1.851563 1.421875 4.429687 1.421875 6.28125 0l9.402344-7.199219c1.851562-1.417969 4.429687-1.417969 6.28125 0l9.402343 7.199219c1.851563 1.421875 4.429688 1.421875 6.28125 0l12.546876-9.605469v44.558594h246.070312v-92.828125c0-10.074219-8.167969-18.242188-18.242188-18.242188h-332.773437c-10.074219 0-18.242187 8.167969-18.242187 18.242188zm0 0" fill="#bdbdbd"/><path d="m407.289062 109.660156h-39.902343c10.074219 0 18.242187 8.167969 18.242187 18.242188v92.828125h39.898438v-92.828125c0-10.074219-8.164063-18.242188-18.238282-18.242188zm0 0" fill="#a6a6a6"/><path d="m7.515625 416.410156v67.3125c0 11.472656 9.300781 20.769532 20.769531 20.769532h425.230469c11.472656 0 20.769531-9.296876 20.769531-20.769532v-67.3125zm0 0" fill="#5c5c5c"/><path d="m431.398438 416.410156v67.3125c0 11.472656-9.296876 20.769532-20.769532 20.769532h42.886719c11.472656 0 20.769531-9.296876 20.769531-20.769532v-67.3125zm0 0" fill="#4a4a4a"/><path d="m233.226562 7.507812h189.519532v71.570313h-189.519532zm0 0" fill="#58caee"/><path d="m393.121094 7.507812h29.625v71.570313h-29.625zm0 0" fill="#4cafcf"/><path d="m219.878906 135.175781h172.171875v60.039063h-172.171875zm0 0" fill="#58caee"/><path d="m361.351562 135.175781h30.699219v60.039063h-30.699219zm0 0" fill="#4cafcf"/><path d="m395.132812 248.742188h-130.671874c-3.726563 0-6.890626 2.738281-7.429688 6.425781l-17.253906 118.449219c-.65625 4.527343 2.855468 8.589843 7.429687 8.589843h170.859375c4.714844 0 8.269532-4.304687 7.371094-8.933593l-22.933594-118.449219c-.683594-3.53125-3.773437-6.082031-7.371094-6.082031zm-139.246093 118.449218 15.066406-103.433594h117.988281l20.023438 103.433594zm0 0"/><path d="m215.597656 442.933594c-4.148437 0-7.507812 3.363281-7.507812 7.507812v7.589844c0 8.511719 6.921875 15.433594 15.433594 15.433594h34.738281c8.511719 0 15.433593-6.925782 15.433593-15.433594v-7.589844c0-4.144531-3.359374-7.507812-7.507812-7.507812-4.144531 0-7.507812 3.363281-7.507812 7.507812v7.589844c0 .824219.824218.226562-35.15625.417969-.800782 0-.257813-1.039063-.417969-8.007813 0-4.144531-3.363281-7.507812-7.507813-7.507812zm0 0"/><path d="m301.023438 281.945312h-5.339844c-4.148438 0-7.507813 3.359376-7.507813 7.503907 0 4.148437 3.359375 7.507812 7.507813 7.507812h5.339844c4.144531 0 7.507812-3.359375 7.507812-7.507812 0-4.144531-3.363281-7.503907-7.507812-7.503907zm0 0"/><path d="m335.304688 281.945312h-5.335938c-4.148438 0-7.507812 3.359376-7.507812 7.503907 0 4.148437 3.359374 7.507812 7.507812 7.507812h5.335938c4.148437 0 7.507812-3.359375 7.507812-7.507812 0-4.144531-3.359375-7.503907-7.507812-7.503907zm0 0"/><path d="m369.589844 281.945312h-5.339844c-4.144531 0-7.507812 3.359376-7.507812 7.503907 0 4.148437 3.363281 7.507812 7.507812 7.507812h5.339844c4.148437 0 7.507812-3.359375 7.507812-7.507812 0-4.144531-3.363281-7.503907-7.507812-7.503907zm0 0"/><path d="m301.023438 307.96875h-5.339844c-4.148438 0-7.507813 3.363281-7.507813 7.507812 0 4.144532 3.359375 7.507813 7.507813 7.507813h5.339844c4.144531 0 7.507812-3.363281 7.507812-7.507813 0-4.144531-3.363281-7.507812-7.507812-7.507812zm0 0"/><path d="m335.304688 307.96875h-5.335938c-4.148438 0-7.507812 3.363281-7.507812 7.507812 0 4.144532 3.359374 7.507813 7.507812 7.507813h5.335938c4.148437 0 7.507812-3.363281 7.507812-7.507813 0-4.144531-3.359375-7.507812-7.507812-7.507812zm0 0"/><path d="m369.589844 307.96875h-5.339844c-4.144531 0-7.507812 3.363281-7.507812 7.507812 0 4.144532 3.363281 7.507813 7.507812 7.507813h5.339844c4.148437 0 7.507812-3.363281 7.507812-7.507813 0-4.144531-3.363281-7.507812-7.507812-7.507812zm0 0"/><path d="m301.023438 333.996094h-5.339844c-4.148438 0-7.507813 3.359375-7.507813 7.503906 0 4.148438 3.359375 7.507812 7.507813 7.507812h5.339844c4.144531 0 7.507812-3.359374 7.507812-7.507812 0-4.144531-3.363281-7.503906-7.507812-7.503906zm0 0"/><path d="m335.304688 333.996094h-5.335938c-4.148438 0-7.507812 3.359375-7.507812 7.503906 0 4.148438 3.359374 7.507812 7.507812 7.507812h5.335938c4.148437 0 7.507812-3.359374 7.507812-7.507812 0-4.144531-3.359375-7.503906-7.507812-7.503906zm0 0"/><path d="m369.589844 333.996094h-5.339844c-4.144531 0-7.507812 3.359375-7.507812 7.503906 0 4.148438 3.363281 7.507812 7.507812 7.507812h5.339844c4.148437 0 7.507812-3.359374 7.507812-7.507812 0-4.144531-3.363281-7.503906-7.507812-7.503906zm0 0"/><path d="m97.085938 158.40625h8.007812c4.144531 0 7.507812-3.363281 7.507812-7.507812 0-4.148438-3.363281-7.507813-7.507812-7.507813h-8.007812c-4.148438 0-7.507813 3.359375-7.507813 7.507813 0 4.144531 3.359375 7.507812 7.507813 7.507812zm0 0"/><path d="m129.367188 158.40625h56.222656c4.144531 0 7.507812-3.363281 7.507812-7.507812 0-4.148438-3.363281-7.507813-7.507812-7.507813h-56.222656c-4.148438 0-7.507813 3.359375-7.507813 7.507813 0 4.144531 3.359375 7.507812 7.507813 7.507812zm0 0"/><path d="m261.414062 51.050781c0 4.144531 3.359376 7.507813 7.507813 7.507813h118.113281c4.148438 0 7.507813-3.363282 7.507813-7.507813 0-4.148437-3.359375-7.507812-7.507813-7.507812h-118.113281c-4.148437 0-7.507813 3.359375-7.507813 7.507812zm0 0"/><path d="m481.765625 415.886719c.757813 2.933593-10.515625-42.601563-48.738281-196.078125v-91.90625c0-14.199219-11.550782-25.75-25.746094-25.75h-53.195312v-15.566406h68.652343c4.144531 0 7.507813-3.363282 7.507813-7.507813v-71.570313c0-4.148437-3.363282-7.507812-7.507813-7.507812h-51.71875c-4.148437 0-7.507812 3.359375-7.507812 7.507812 0 4.144532 3.359375 7.507813 7.507812 7.507813h44.210938v56.554687h-174.503907v-56.554687h102.265626c4.148437 0 7.507812-3.363281 7.507812-7.507813 0-4.148437-3.359375-7.507812-7.507812-7.507812h-109.773438c-4.148438 0-7.507812 3.359375-7.507812 7.507812v71.570313c0 4.144531 3.359374 7.507813 7.507812 7.507813h68.652344v15.566406h-227.363282c-14.199218 0-25.75 11.550781-25.75 25.75v91.90625c-50.222656 201.664062-48.7226558 194.992187-48.757812 196.601562v67.3125c0 15.59375 12.683594 28.277344 28.277344 28.277344h92.996094c4.148437 0 7.507812-3.359375 7.507812-7.507812 0-4.144532-3.359375-7.507813-7.507812-7.507813h-92.996094c-7.3125 0-13.261719-5.949219-13.261719-13.261719v-59.808594h451.753906v59.808594c0 7.3125-5.949219 13.261719-13.261719 13.261719h-304.203124c-4.148438 0-7.507813 3.363281-7.507813 7.507813 0 4.148437 3.359375 7.507812 7.507813 7.507812h304.203124c15.59375 0 28.277344-12.683594 28.277344-28.277344 0-70.902344.007813-67.429687-.019531-67.835937zm-164.882813-329.300781h22.191407v15.566406h-22.191407zm-253.109374 41.316406c0-5.917969 4.8125-10.734375 10.734374-10.734375h332.773438c5.917969 0 10.734375 4.816406 10.734375 10.734375v85.320312h-231.054687v-37.050781c0-6.210937-7.140626-9.738281-12.074219-5.960937l-11.121094 8.515624-7.980469-6.109374c-4.535156-3.476563-10.875-3.472657-15.410156 0l-7.976562 6.109374c-10.929688-8.371093-7.160157-5.484374-7.976563-6.109374-2.363281-1.769532-4.996094-2.605469-7.707031-2.605469-5.53125 0-7.644532 2.613281-15.675782 8.714843l-11.113281-8.515624c-4.9375-3.78125-12.074219-.246094-12.074219 5.960937v37.050781h-14.078124zm21.585937 179.566406h94.09375c4.144531 0 7.507813-3.363281 7.507813-7.507812v-8.175782h3.5c1.242187 0 2.253906 1.011719 2.253906 2.253906v16.765626c0 1.242187-1.011719 2.253906-2.253906 2.253906h-116.113282c-1.238281 0-2.25-1.011719-2.25-2.253906v-16.765626c0-1.242187 1.011719-2.253906 2.25-2.253906h3.503906v8.175782c0 4.144531 3.359376 7.507812 7.507813 7.507812zm7.976563-115.730469v.003907c4.542968 3.472656 10.875 3.46875 15.410156-.003907l7.972656-6.109375c8.441406 6.464844 9.09375 7.25 11.808594 8.113282 3.046875.976562 6.421875.773437 9.375-.652344 1.988281-.953125 2.546875-1.710938 10.179687-7.460938 7.394531 5.46875 9.898438 8.714844 15.683594 8.714844 4.976563 0 7.917969-2.824219 8.179687-2.96875v101.078125h-79.078124v-101.074219c.101562.082032.570312.4375.46875.359375zm-76.222657 217.164063 45.019531-180.664063h15.71875v48.53125h-3.503906c-9.519531 0-17.265625 7.746094-17.265625 17.269531v16.765626c0 9.519531 7.746094 17.265624 17.265625 17.265624h116.113282c9.523437 0 17.269531-7.746093 17.269531-17.265624v-16.765626c0-9.523437-7.746094-17.269531-17.269531-17.269531h-3.5v-48.53125h232.695312l45.015625 180.664063zm0 0"/><path d="m219.871094 202.71875h47.785156c4.148438 0 7.507812-3.359375 7.507812-7.507812 0-4.144532-3.359374-7.507813-7.507812-7.507813h-40.277344v-45.019531h157.15625v45.019531h-88.851562c-4.148438 0-7.507813 3.363281-7.507813 7.507813 0 4.148437 3.359375 7.507812 7.507813 7.507812h96.359375c4.144531 0 7.503906-3.359375 7.503906-7.507812v-60.035157c0-4.144531-3.359375-7.507812-7.503906-7.507812h-172.171875c-4.144532 0-7.507813 3.363281-7.507813 7.507812v60.035157c0 4.148437 3.363281 7.507812 7.507813 7.507812zm0 0"/></svg>