<svg height="512" viewBox="0 0 64 64" width="512" xmlns="http://www.w3.org/2000/svg"><g id="Presentation-Report-Analytics-Management-Business"><path d="m22 57h20v4h-20z" fill="#1e81ce"/><path d="m3 45h58v4h-58z" fill="#3d9ae2"/><path d="m5 11h54v34h-54z" fill="#e6e7e8"/><path d="m35 50v7h-6v-8h6z" fill="#3d9ae2"/><path d="m29 28h11a11 11 0 1 1 -11-11z" fill="#ffd422"/><path d="m37.26 20.74a10.936 10.936 0 0 1 2.74 7.26h-11v-11a10.955 10.955 0 0 1 8.26 3.74z" fill="#ff5023"/><path d="m61 7v4h-2-54-2v-4h26 6z" fill="#3d9ae2"/><path d="m29 3h6v4h-6z" fill="#3d9ae2"/><path d="m5 11h54v2h-54z" fill="#d8d7da"/><path d="m29 49h6v2h-6z" fill="#1e81ce"/><path d="m57.68 45.53c-.05-.18-.1-.36-.15-.53a9.877 9.877 0 0 0 -.94-2.09l2.02-2.69-2.83-2.83-2.69 2.02a9.8 9.8 0 0 0 -2.62-1.09l-.47-3.32h-4l-.47 3.32a9.8 9.8 0 0 0 -2.62 1.09l-2.69-2.02-2.83 2.83 2.02 2.69a9.877 9.877 0 0 0 -.94 2.09c-.05.17-.1.35-.15.53l-3.32.47v4l3.32.47a9.8 9.8 0 0 0 1.09 2.62l-2.02 2.69 1.22 1.22 1.61 1.61 1.78-1.34.91-.68a9.8 9.8 0 0 0 2.62 1.09l.47 3.32h4l.47-3.32a9.8 9.8 0 0 0 2.62-1.09l2.69 2.02 2.83-2.83-2.02-2.69a9.8 9.8 0 0 0 1.09-2.62l3.32-.47v-4z" fill="#ff9811"/><path d="m46 16h4v2h-4z"/><path d="m46 20h4v2h-4z"/><path d="m21.707 39.707 1.316-1.316a11.978 11.978 0 0 0 15.57-17.57l.821-.821h4.586v-2h-5a1 1 0 0 0 -.707.293l-1.029 1.029a11.989 11.989 0 1 0 -15.915 17.914l-.763.764h-3.586v2h4a1 1 0 0 0 .707-.293zm14-16 1.459-1.459a9.918 9.918 0 0 1 1.783 4.752h-8.949v-8.949a9.961 9.961 0 0 1 5.851 2.684l-1.558 1.558zm-16.707 4.293a10.013 10.013 0 0 1 9-9.949v9.949a1 1 0 0 0 1 1h9.949a9.979 9.979 0 0 1 -14.449 7.917l1.21-1.21-1.414-1.414-1.519 1.519a9.982 9.982 0 0 1 -3.777-7.812z"/><path d="m11 36h4v2h-4z"/><path d="m11 40h4v2h-4z"/><path d="m11 14h2v2h-2z"/><path d="m15 14h4v2h-4z"/><path d="m11 18h8v2h-8z"/><path d="m61 6h-25v-3a1 1 0 0 0 -1-1h-6a1 1 0 0 0 -1 1v3h-25a1 1 0 0 0 -1 1v4a1 1 0 0 0 1 1h1v32h-1a1 1 0 0 0 -1 1v4a1 1 0 0 0 1 1h25v6h-6a1 1 0 0 0 -1 1v4a1 1 0 0 0 1 1h16v-2h-15v-2h12a1 1 0 0 0 1-1v-5h-2v4h-4v-6h2v-2h-28v-2h28v-2h-26v-32h52v24h2v-24h1a1 1 0 0 0 1-1v-4a1 1 0 0 0 -1-1zm-31-2h4v2h-4zm30 6h-56v-2h56z"/><path d="m61.142 45.01-2.682-.383a10.96 10.96 0 0 0 -.678-1.639l1.624-2.166a1 1 0 0 0 -.093-1.307l-2.828-2.828a1 1 0 0 0 -1.307-.093l-2.166 1.624a10.96 10.96 0 0 0 -1.639-.678l-.383-2.682a1 1 0 0 0 -.99-.858h-4a1 1 0 0 0 -.99.858l-.383 2.682a10.96 10.96 0 0 0 -1.639.678l-2.166-1.624a1 1 0 0 0 -1.307.093l-2.828 2.828a1 1 0 0 0 -.093 1.307l1.624 2.166a10.96 10.96 0 0 0 -.678 1.639l-2.682.383a1 1 0 0 0 -.858.99v4a1 1 0 0 0 .858.99l2.682.383a10.96 10.96 0 0 0 .678 1.639l-1.624 2.166a1 1 0 0 0 .093 1.307l2.828 2.828a1 1 0 0 0 1.307.093l2.166-1.624a10.96 10.96 0 0 0 1.639.678l.383 2.682a1 1 0 0 0 .99.858h4a1 1 0 0 0 .99-.858l.383-2.682a10.96 10.96 0 0 0 1.639-.678l2.166 1.624a1 1 0 0 0 1.307-.093l2.828-2.828a1 1 0 0 0 .093-1.307l-1.624-2.166a10.96 10.96 0 0 0 .678-1.639l2.682-.383a1 1 0 0 0 .858-.99v-4a1 1 0 0 0 -.858-.99zm-1.142 4.123-2.463.352a1 1 0 0 0 -.828.743 8.892 8.892 0 0 1 -.975 2.356 1 1 0 0 0 .06 1.111l1.492 1.99-1.6 1.6-1.986-1.491a1 1 0 0 0 -1.111-.06 8.892 8.892 0 0 1 -2.356.975 1 1 0 0 0 -.743.828l-.357 2.463h-2.266l-.352-2.463a1 1 0 0 0 -.743-.828 8.892 8.892 0 0 1 -2.356-.975 1 1 0 0 0 -1.111.06l-1.99 1.492-1.6-1.6 1.492-1.99a1 1 0 0 0 .06-1.111 8.892 8.892 0 0 1 -.975-2.356 1 1 0 0 0 -.828-.743l-2.464-.353v-2.266l2.463-.352a1 1 0 0 0 .828-.743 8.892 8.892 0 0 1 .975-2.356 1 1 0 0 0 -.06-1.111l-1.492-1.99 1.6-1.6 1.99 1.492a1 1 0 0 0 1.111.06 8.892 8.892 0 0 1 2.356-.975 1 1 0 0 0 .743-.828l.353-2.464h2.266l.352 2.463a1 1 0 0 0 .743.828 8.892 8.892 0 0 1 2.356.975 1 1 0 0 0 1.111-.06l1.99-1.492 1.6 1.6-1.492 1.99a1 1 0 0 0 -.06 1.111 8.892 8.892 0 0 1 .975 2.356 1 1 0 0 0 .828.743l2.464.353z"/><path d="m47 38h2v2h-2z"/><path d="m40.636 40.636h2v2h-2z" transform="matrix(.707 -.707 .707 .707 -17.246 41.636)"/><path d="m38 47h2v2h-2z"/><path d="m40.636 53.364h2v2h-2z" transform="matrix(.707 -.707 .707 .707 -26.246 45.364)"/><path d="m47 56h2v2h-2z"/><path d="m53.364 53.364h2v2h-2z" transform="matrix(.707 -.707 .707 .707 -22.518 54.364)"/><path d="m56 47h2v2h-2z"/><path d="m53.364 40.636h2v2h-2z" transform="matrix(.707 -.707 .707 .707 -13.518 50.636)"/><path d="m47 45h2a1 1 0 0 1 1 1h2a3 3 0 0 0 -3-3v-1h-2v1a3 3 0 0 0 0 6h2a1 1 0 0 1 0 2h-2a1 1 0 0 1 -1-1h-2a3 3 0 0 0 3 3v1h2v-1a3 3 0 0 0 0-6h-2a1 1 0 0 1 0-2z"/></g></svg>