<svg id="Layer_5" enable-background="new 0 0 64 64" height="512" viewBox="0 0 64 64" width="512" xmlns="http://www.w3.org/2000/svg"><g><g><g><path d="m2 9v38h40c0-2.76 2.24-5 5-5s5 2.24 5 5h4v-38z" fill="#e6e9ed"/></g><g><path d="m6 35h4v8h-4z" fill="#fcd770"/></g><g><path d="m14 37h4v6h-4z" fill="#fcd770"/></g><g><path d="m22 29h4v14h-4z" fill="#fcd770"/></g><g><path d="m34 33v6.52c-.62 1.08-1.12 2.25-1.46 3.48h-2.54v-10z" fill="#fcd770"/></g><g><path d="m47 38c-4.97 0-9 4.03-9 9 0 1.64.44 3.18 1.21 4.5 1.55 2.69 4.46 4.5 7.79 4.5s6.24-1.81 7.79-4.5c.77-1.32 1.21-2.86 1.21-4.5 0-4.97-4.03-9-9-9zm0 14c-2.76 0-5-2.24-5-5s2.24-5 5-5 5 2.24 5 5-2.24 5-5 5z" fill="#ccd1d9"/></g><g><path d="m54.79 51.5 5.2 3c-2.6 4.48-7.44 7.5-12.99 7.5s-10.39-3.02-12.99-7.5l5.2-3c1.55 2.69 4.46 4.5 7.79 4.5s6.24-1.81 7.79-4.5z" fill="#fcd770"/></g><g><path d="m62 47c0 2.73-.73 5.3-2.01 7.5l-5.2-3c.77-1.32 1.21-2.86 1.21-4.5 0-4.97-4.03-9-9-9v-6c3.38 0 6.5 1.12 9 3 3.64 2.74 6 7.1 6 12z" fill="#ff826e"/></g><g><path d="m47 32v6c-4.97 0-9 4.03-9 9 0 1.64.44 3.18 1.21 4.5l-5.2 3c-1.28-2.2-2.01-4.77-2.01-7.5 0-1.38.19-2.73.54-4 .34-1.23.84-2.4 1.46-3.48 2.59-4.5 7.45-7.52 13-7.52z" fill="#b4dd7f"/></g><g><path d="m29.41 22.59c.37.36.59.86.59 1.41 0 1.1-.9 2-2 2s-2-.9-2-2 .9-2 2-2c.55 0 1.05.22 1.41.59z" fill="#ff826e"/></g><g><path d="m38.41 16.41c-.36.37-.86.59-1.41.59s-1.05-.22-1.41-.59c-.37-.36-.59-.86-.59-1.41 0-1.1.9-2 2-2s2 .9 2 2c0 .55-.22 1.05-.59 1.41z" fill="#ff826e"/></g><g><path d="m44.41 19.59c.37.36.59.86.59 1.41 0 1.1-.9 2-2 2s-2-.9-2-2c0-.55.22-1.05.59-1.41.36-.37.86-.59 1.41-.59s1.05.22 1.41.59z" fill="#ff826e"/></g><g><path d="m56 2c3.31 0 6 2.69 6 6s-2.69 6-6 6c-1.66 0-3.16-.67-4.24-1.76-.86-.86-1.46-1.98-1.67-3.24-.06-.32-.09-.66-.09-1 0-3.31 2.69-6 6-6z" fill="#ff826e"/></g></g><g><path d="m57 34.53v-19.61c3.387-.488 6-3.401 6-6.92 0-3.859-3.14-7-7-7s-7 3.141-7 7h-48v40h30.051c.52 8.356 7.465 15 15.949 15 8.822 0 16-7.178 16-16 0-5.039-2.347-9.535-6-12.47zm-1-31.53c2.757 0 5 2.243 5 5s-2.243 5-5 5-5-2.243-5-5 2.243-5 5-5zm-53 7h46.295c.239.798.619 1.533 1.107 2.185l-6.116 6.116c-.392-.188-.824-.301-1.286-.301s-.894.113-1.285.301l-2.015-2.015c.187-.392.3-.824.3-1.286 0-1.654-1.346-3-3-3s-3 1.346-3 3c0 .462.113.894.301 1.285l-5.015 5.015c-.392-.187-.824-.3-1.286-.3-1.654 0-3 1.346-3 3s1.346 3 3 3 3-1.346 3-3c0-.462-.113-.894-.301-1.285l5.015-5.015c.392.187.824.3 1.286.3s.894-.113 1.285-.301l2.015 2.015c-.187.392-.3.824-.3 1.286 0 1.654 1.346 3 3 3s3-1.346 3-3c0-.462-.113-.894-.301-1.285l6.117-6.116c.915.686 2.001 1.151 3.184 1.322v18.245c-2.357-1.369-5.084-2.166-8-2.166-4.78 0-9.066 2.118-12 5.453v-4.453h-6v12h2.292c-.124.653-.199 1.322-.241 2h-28.051zm40 10c.551 0 1 .448 1 1s-.449 1-1 1-1-.448-1-1 .449-1 1-1zm-7-5c0-.552.449-1 1-1s1 .448 1 1-.449 1-1 1-1-.448-1-1zm-7 9c0 .552-.449 1-1 1s-1-.448-1-1 .449-1 1-1 1 .448 1 1zm18 31c-4.411 0-8-3.589-8-8s3.589-8 8-8 8 3.589 8 8-3.589 8-8 8zm-14-15.729c-.479.864-.875 1.777-1.189 2.729h-.811v-8h2zm13-6.22v4c-5.046.504-9 4.773-9 9.949 0 1.463.324 2.85.891 4.104l-3.469 2.003c-.902-1.848-1.422-3.916-1.422-6.107 0-7.382 5.747-13.433 13-13.949zm1 27.949c-4.814 0-9.068-2.443-11.588-6.155l3.483-2.011c1.818 2.518 4.769 4.166 8.105 4.166s6.287-1.648 8.105-4.166l3.483 2.011c-2.52 3.712-6.774 6.155-11.588 6.155zm12.578-7.893-3.469-2.003c.567-1.254.891-2.641.891-4.104 0-5.176-3.954-9.446-9-9.949v-4c7.253.516 13 6.567 13 13.949 0 2.191-.52 4.259-1.422 6.107z"/><path d="m47 41c-3.309 0-6 2.691-6 6s2.691 6 6 6 6-2.691 6-6-2.691-6-6-6zm0 10c-2.206 0-4-1.794-4-4s1.794-4 4-4 4 1.794 4 4-1.794 4-4 4z"/><path d="m5 12h2v2h-2z"/><path d="m9 12h14v2h-14z"/><path d="m5 16h2v2h-2z"/><path d="m9 16h14v2h-14z"/><path d="m5 20h2v2h-2z"/><path d="m9 20h14v2h-14z"/><path d="m5 24h2v2h-2z"/><path d="m9 24h14v2h-14z"/><path d="m5 44h6v-10h-6zm2-8h2v6h-2z"/><path d="m13 44h6v-8h-6zm2-6h2v4h-2z"/><path d="m21 44h6v-16h-6zm2-14h2v12h-2z"/></g></g></svg>